<?xml version="1.0" standalone="no"?>
<!DOCTYPE svg PUBLIC "-//W3C//DTD SVG 20010904//EN"
 "http://www.w3.org/TR/2001/REC-SVG-20010904/DTD/svg10.dtd">
<svg version="1.0" xmlns="http://www.w3.org/2000/svg"
 width="194.000000pt" height="219.000000pt" viewBox="0 0 194.000000 219.000000"
 preserveAspectRatio="xMidYMid meet">
<metadata>
Created by potrace 1.16, written by Peter Selinger 2001-2019
</metadata>
<g transform="translate(0.000000,219.000000) scale(0.100000,-0.100000)"
fill="#000000" stroke="none">
<path d="M795 1716 c-127 -40 -236 -133 -289 -245 -29 -61 -31 -74 -31 -171 0
-97 2 -110 32 -172 34 -72 101 -151 154 -182 31 -18 31 -18 -8 21 -22 22 -53
67 -69 99 -25 50 -29 71 -29 139 0 71 4 88 33 147 38 77 90 127 175 168 185
89 418 8 504 -175 23 -50 28 -73 28 -140 0 -68 -4 -89 -29 -140 -16 -32 -50
-79 -75 -104 -49 -48 -41 -47 24 3 60 47 81 74 123 155 36 72 37 78 37 180 0
95 -3 112 -27 164 -55 118 -167 215 -288 251 -64 19 -208 20 -265 2z"/>
<path d="M814 1311 c-142 -64 -185 -240 -88 -358 19 -24 49 -50 66 -59 l30
-16 -33 41 c-27 34 -33 50 -33 90 0 62 33 113 90 141 72 35 143 24 202 -33 59
-57 63 -134 9 -204 -19 -25 -20 -27 -2 -13 46 33 68 57 87 93 82 160 -35 337
-221 337 -43 0 -81 -7 -107 -19z"/>
<path d="M598 722 c-16 -3 -18 -17 -18 -121 0 -80 -4 -121 -12 -130 -11 -11
-9 -11 10 -2 34 18 43 54 40 160 -3 86 -5 96 -20 93z"/>
<path d="M1074 720 c-17 -4 -19 -15 -19 -106 l0 -101 55 2 c30 1 61 3 68 4 6
0 12 13 12 28 l0 27 -16 -22 c-10 -14 -25 -22 -45 -22 -28 0 -29 2 -29 45 0
37 3 45 18 45 10 0 23 -5 30 -12 9 -9 12 -6 12 17 0 23 -3 26 -12 17 -7 -7
-20 -12 -30 -12 -14 0 -18 8 -18 40 0 37 2 40 27 40 14 0 35 -7 45 -17 17 -15
18 -15 18 5 0 16 -6 22 -22 23 -13 0 -35 1 -49 3 -14 1 -34 -1 -45 -4z"/>
<path d="M732 695 c-14 -31 -16 -46 -2 -25 13 21 27 4 35 -42 7 -38 7 -38 -25
-38 -31 0 -32 2 -26 30 9 47 -1 35 -19 -22 -10 -29 -21 -57 -26 -62 -14 -15
-11 -22 9 -22 12 0 17 8 17 31 0 28 3 30 42 33 41 3 42 2 48 -31 6 -29 11 -35
31 -33 27 1 27 0 15 24 -5 9 -20 53 -33 97 -26 86 -46 104 -66 60z"/>
<path d="M950 713 c14 -2 31 -12 37 -20 15 -19 28 -11 20 12 -4 10 -18 15 -44
14 -27 -1 -31 -3 -13 -6z"/>
<path d="M1230 714 c0 -3 12 -31 26 -62 18 -40 25 -69 22 -99 -3 -39 -1 -42
19 -41 20 2 23 8 23 46 0 42 27 109 58 145 14 16 13 17 -7 17 -12 0 -19 -4
-16 -10 7 -11 -31 -90 -43 -90 -9 0 -37 69 -36 88 1 6 -9 12 -22 12 -13 0 -24
-3 -24 -6z"/>
<path d="M892 698 c-22 -22 -12 -46 33 -84 32 -26 45 -43 43 -58 -4 -28 -54
-35 -74 -9 -14 17 -15 17 -12 -2 3 -17 11 -20 51 -19 88 1 104 62 27 105 -32
18 -40 28 -40 51 0 30 -9 35 -28 16z"/>
</g>
</svg>
